<mxfile host="app.diagrams.net" modified="2023-05-29T05:21:16.314Z" agent="Mozilla/5.0 (Windows NT 10.0; Win64; x64) AppleWebKit/537.36 (KHTML, like Gecko) Chrome/113.0.0.0 Safari/537.36" etag="ps8wq8ZcLbWZvQKHkeS2" version="21.3.5" type="github">
  <diagram name="Page-1" id="hI1YRSXv8M0d7W6Qs2xD">
    <mxGraphModel dx="1730" dy="1584" grid="1" gridSize="10" guides="1" tooltips="1" connect="1" arrows="1" fold="1" page="1" pageScale="1" pageWidth="850" pageHeight="1100" math="0" shadow="0">
      <root>
        <mxCell id="0" />
        <mxCell id="1" parent="0" />
        <mxCell id="FXS1Nzry9ENir-87CXin-1" value="&lt;font style=&quot;font-size: 20px;&quot;&gt;Student&lt;/font&gt;" style="swimlane;childLayout=stackLayout;horizontal=1;startSize=50;horizontalStack=0;rounded=1;fontSize=14;fontStyle=0;strokeWidth=2;resizeParent=0;resizeLast=1;shadow=0;dashed=0;align=center;arcSize=4;whiteSpace=wrap;html=1;" parent="1" vertex="1">
          <mxGeometry x="-830" y="-1080" width="270" height="200" as="geometry" />
        </mxCell>
        <mxCell id="FXS1Nzry9ENir-87CXin-2" value="&lt;font style=&quot;font-size: 20px;&quot;&gt;+ID(PK) - Number&lt;br&gt;+First Name - Text&lt;br&gt;+Last Name - Text&lt;br&gt;+DateOfBirth - Date&lt;br&gt;+StudentID - Text&lt;br&gt;+ProgrammeOfStudy - Text&lt;br&gt;&lt;/font&gt;" style="align=left;strokeColor=none;fillColor=none;spacingLeft=4;fontSize=12;verticalAlign=top;resizable=0;rotatable=0;part=1;html=1;" parent="FXS1Nzry9ENir-87CXin-1" vertex="1">
          <mxGeometry y="50" width="270" height="150" as="geometry" />
        </mxCell>
        <mxCell id="FXS1Nzry9ENir-87CXin-4" value="&lt;font style=&quot;font-size: 20px;&quot;&gt;Course&lt;/font&gt;" style="swimlane;childLayout=stackLayout;horizontal=1;startSize=50;horizontalStack=0;rounded=1;fontSize=14;fontStyle=0;strokeWidth=2;resizeParent=0;resizeLast=1;shadow=0;dashed=0;align=center;arcSize=4;whiteSpace=wrap;html=1;" parent="1" vertex="1">
          <mxGeometry x="-830" y="-860" width="270" height="190" as="geometry" />
        </mxCell>
        <mxCell id="FXS1Nzry9ENir-87CXin-5" value="&lt;font style=&quot;font-size: 20px;&quot;&gt;&amp;nbsp;+ID(PK) - Number&lt;br&gt;+Name - Text&lt;br&gt;+Code - Text&lt;br&gt;+Credits - Number&lt;br&gt;&lt;/font&gt;" style="align=left;strokeColor=none;fillColor=none;spacingLeft=4;fontSize=12;verticalAlign=top;resizable=0;rotatable=0;part=1;html=1;" parent="FXS1Nzry9ENir-87CXin-4" vertex="1">
          <mxGeometry y="50" width="270" height="140" as="geometry" />
        </mxCell>
        <mxCell id="FXS1Nzry9ENir-87CXin-6" value="&lt;font style=&quot;font-size: 20px;&quot;&gt;Lecturer&lt;/font&gt;" style="swimlane;childLayout=stackLayout;horizontal=1;startSize=50;horizontalStack=0;rounded=1;fontSize=14;fontStyle=0;strokeWidth=2;resizeParent=0;resizeLast=1;shadow=0;dashed=0;align=center;arcSize=4;whiteSpace=wrap;html=1;" parent="1" vertex="1">
          <mxGeometry x="-370" y="-1080" width="190" height="200" as="geometry" />
        </mxCell>
        <mxCell id="FXS1Nzry9ENir-87CXin-7" value="&lt;font style=&quot;font-size: 20px;&quot;&gt;+ID(PK) - Number&lt;br&gt;+First Name - Text&lt;br&gt;+Last Name - Text&lt;br&gt;+DateOfBirth - Date&lt;br&gt;+StaffID - Text&lt;br&gt;&lt;/font&gt;" style="align=left;strokeColor=none;fillColor=none;spacingLeft=4;fontSize=12;verticalAlign=top;resizable=0;rotatable=0;part=1;html=1;" parent="FXS1Nzry9ENir-87CXin-6" vertex="1">
          <mxGeometry y="50" width="190" height="150" as="geometry" />
        </mxCell>
      </root>
    </mxGraphModel>
  </diagram>
</mxfile>
